<svg xmlns="http://www.w3.org/2000/svg" version="1.1" xmlns:xlink="http://www.w3.org/1999/xlink" xmlns:svgjs="http://svgjs.dev/svgjs" width="2560" height="1440" preserveAspectRatio="none" viewBox="0 0 2560 1440"><g mask="url(&quot;#SvgjsMask1192&quot;)" fill="none"><path d="M619.52 337.61a129.01 129.01 0 1 0 102.64 236.73z" stroke="rgba(33, 73, 182, 1)"></path><path d="M799.27 38.02L868.44 38.02L868.44 49.63L799.27 49.63z" stroke="rgba(139, 148, 158, 1)"></path><path d="M2502.95 1167.86 a10.98 10.98 0 1 0 21.96 0 a10.98 10.98 0 1 0 -21.96 0z" fill="rgba(139, 148, 158, 1)"></path><path d="M1156.29 1343.55L1221.97 1343.55L1221.97 1409.23L1156.29 1409.23z" stroke="rgba(139, 148, 158, 1)"></path><path d="M2376.73 984.19a132.57 132.57 0 1 0 146.66 220.89z" stroke="rgba(139, 148, 158, 1)"></path><path d="M1223.67 363.75L1334.18 363.75L1334.18 421.62L1223.67 421.62z" stroke="rgba(33, 73, 182, 1)"></path><path d="M50.83 1307.62L147.49 1307.62L147.49 1404.28L50.83 1404.28z" fill="rgba(48, 104, 255, 1)"></path><path d="M2019.89 68.65L2028.97 68.65L2028.97 99.96L2019.89 99.96z" fill="rgba(33, 73, 182, 1)"></path><path d="M2452.98 279.36L2484.09 279.36L2484.09 381.84L2452.98 381.84z" fill="rgba(139, 148, 158, 1)"></path><path d="M2541.26 783.62L2679.59 783.62L2679.59 921.95L2541.26 921.95z" stroke="rgba(33, 73, 182, 1)"></path><path d="M1391.54 269.84L1412.9 269.84L1412.9 291.2L1391.54 291.2z" fill="rgba(33, 73, 182, 1)"></path><path d="M483.01 241.08L577.37 241.08L577.37 335.44L483.01 335.44z" fill="rgba(48, 104, 255, 1)"></path><path d="M342.25 1340.41L374.51 1340.41L374.51 1372.67L342.25 1372.67z" stroke="rgba(48, 104, 255, 1)"></path><path d="M512.98 235.26L632.35 235.26L632.35 291.88L512.98 291.88z" fill="rgba(139, 148, 158, 1)"></path><path d="M171.72 952.1a99.16 99.16 0 1 0-182.63-77.33z" stroke="rgba(48, 104, 255, 1)"></path><path d="M2138.52 858.11L2252.63 858.11L2252.63 972.22L2138.52 972.22z" stroke="rgba(48, 104, 255, 1)"></path><path d="M1813.51 290.89 a13.12 13.12 0 1 0 26.24 0 a13.12 13.12 0 1 0 -26.24 0z" stroke="rgba(139, 148, 158, 1)"></path><path d="M1063.38 733.58a30.86 30.86 0 1 0 22.12-57.62z" stroke="rgba(48, 104, 255, 1)"></path><path d="M1349.55 747.78L1473.97 747.78L1473.97 872.2L1349.55 872.2z" stroke="rgba(33, 73, 182, 1)"></path><path d="M569.49-26.52a105.29 105.29 0 1 0 193.74 82.52z" stroke="rgba(33, 73, 182, 1)"></path><path d="M436.57 689.24L536.31 689.24L536.31 788.98L436.57 788.98z" fill="rgba(48, 104, 255, 1)"></path><path d="M209.83 819.4L319.1 819.4L319.1 928.67L209.83 928.67z" fill="rgba(48, 104, 255, 1)"></path><path d="M1416.96 766.31L1508.6 766.31L1508.6 857.95L1416.96 857.95z" stroke="rgba(48, 104, 255, 1)"></path></g><defs><mask id="SvgjsMask1192"><rect width="2560" height="1440" fill="#ffffff"></rect></mask></defs></svg>